<svg width="60" height="60" viewBox="0 0 60 60" fill="none" xmlns="http://www.w3.org/2000/svg">
<circle cx="30" cy="30" r="30" fill="#209EC1"/>
<path d="M29 20C27.0222 20 25.0888 20.5865 23.4443 21.6853C21.7998 22.7841 20.5181 24.3459 19.7612 26.1732C19.0043 28.0004 18.8063 30.0111 19.1921 31.9509C19.578 33.8907 20.5304 35.6725 21.9289 37.0711C23.3275 38.4696 25.1093 39.422 27.0491 39.8079C28.9889 40.1937 30.9996 39.9957 32.8268 39.2388C34.6541 38.4819 36.2159 37.2002 37.3147 35.5557C38.4135 33.9112 39 31.9778 39 30C39 28.6868 38.7413 27.3864 38.2388 26.1732C37.7362 24.9599 36.9996 23.8575 36.0711 22.9289C35.1425 22.0003 34.0401 21.2638 32.8268 20.7612C31.6136 20.2587 30.3132 20 29 20ZM29 38C27.4177 38 25.871 37.5308 24.5554 36.6518C23.2398 35.7727 22.2145 34.5233 21.609 33.0615C21.0035 31.5997 20.845 29.9911 21.1537 28.4393C21.4624 26.8874 22.2243 25.462 23.3431 24.3431C24.462 23.2243 25.8874 22.4624 27.4393 22.1537C28.9911 21.845 30.5997 22.0035 32.0615 22.609C33.5233 23.2145 34.7727 24.2398 35.6518 25.5554C36.5308 26.871 37 28.4177 37 30C37 32.1217 36.1571 34.1566 34.6569 35.6569C33.1566 37.1571 31.1217 38 29 38ZM30 29.93V25C30 24.7348 29.8946 24.4804 29.7071 24.2929C29.5196 24.1054 29.2652 24 29 24C28.7348 24 28.4804 24.1054 28.2929 24.2929C28.1054 24.4804 28 24.7348 28 25V30C28 30 28 30.07 28 30.11C27.9754 30.3133 28.0138 30.5192 28.11 30.7L29.61 33.3C29.7426 33.5307 29.9614 33.6993 30.2184 33.7687C30.4753 33.8381 30.7493 33.8026 30.98 33.67C31.2107 33.5374 31.3793 33.3186 31.4487 33.0616C31.5181 32.8047 31.4826 32.5307 31.35 32.3L30 29.93Z" fill="white"/>
</svg>
