<svg width="60" height="60" viewBox="0 0 60 60" fill="none" xmlns="http://www.w3.org/2000/svg">
<circle cx="30" cy="30" r="30" fill="#209EC1"/>
<path d="M38.87 35.25L36.16 30.57C36.7145 29.5515 37.0034 28.4097 37 27.25C37 25.3935 36.2625 23.613 34.9497 22.3003C33.637 20.9875 31.8565 20.25 30 20.25C28.1435 20.25 26.363 20.9875 25.0502 22.3003C23.7375 23.613 23 25.3935 23 27.25C22.9966 28.4097 23.2855 29.5515 23.84 30.57L21.13 35.25C21.0421 35.4023 20.9958 35.5751 20.996 35.751C20.9962 35.9269 21.0427 36.0996 21.131 36.2517C21.2192 36.4039 21.346 36.53 21.4986 36.6175C21.6512 36.705 21.8241 36.7507 22 36.75H24.87L26.33 39.21C26.3792 39.2915 26.4398 39.3656 26.51 39.43C26.6954 39.6087 26.9425 39.709 27.2 39.71H27.34C27.491 39.6893 27.6352 39.6345 27.7617 39.5495C27.8883 39.4646 27.9937 39.3519 28.07 39.22L30 35.9L31.93 39.25C32.0074 39.38 32.1134 39.4908 32.2398 39.5739C32.3663 39.6571 32.5099 39.7104 32.66 39.73H32.8C33.0609 39.7316 33.3121 39.6311 33.5 39.45C33.5673 39.3893 33.6246 39.3184 33.67 39.24L35.13 36.78H38C38.1762 36.7807 38.3495 36.7348 38.5023 36.647C38.655 36.5592 38.7819 36.4326 38.87 36.28C38.9634 36.1245 39.0128 35.9464 39.0128 35.765C39.0128 35.5836 38.9634 35.4055 38.87 35.25ZM27.19 36.78L26.3 35.29C26.2124 35.1422 26.0881 35.0194 25.9392 34.9336C25.7903 34.8478 25.6218 34.8018 25.45 34.8H23.72L25.15 32.32C26.1347 33.2689 27.3758 33.9085 28.72 34.16L27.19 36.78ZM30 32.25C29.0111 32.25 28.0444 31.9568 27.2221 31.4073C26.3999 30.8579 25.759 30.077 25.3806 29.1634C25.0022 28.2498 24.9031 27.2445 25.0961 26.2745C25.289 25.3046 25.7652 24.4137 26.4645 23.7145C27.1637 23.0152 28.0546 22.539 29.0245 22.3461C29.9945 22.1531 30.9998 22.2522 31.9134 22.6306C32.827 23.009 33.6079 23.6499 34.1573 24.4721C34.7068 25.2944 35 26.2611 35 27.25C35 28.5761 34.4732 29.8479 33.5355 30.7855C32.5978 31.7232 31.3261 32.25 30 32.25ZM34.55 34.8C34.3782 34.8018 34.2097 34.8478 34.0608 34.9336C33.9119 35.0194 33.7876 35.1422 33.7 35.29L32.81 36.78L31.29 34.13C32.6295 33.8734 33.866 33.2343 34.85 32.29L36.28 34.77L34.55 34.8Z" fill="white"/>
</svg>
